<?xml version="1.0" encoding="UTF-8"?>
<!DOCTYPE svg PUBLIC "-//W3C//DTD SVG 1.1//EN" "http://www.w3.org/Graphics/SVG/1.1/DTD/svg11.dtd">
<svg xmlns="http://www.w3.org/2000/svg" version="1.1" width="500px" height="500px" style="shape-rendering:geometricPrecision; text-rendering:geometricPrecision; image-rendering:optimizeQuality; fill-rule:evenodd; clip-rule:evenodd" xmlns:xlink="http://www.w3.org/1999/xlink">
<g><path style="opacity:0.142" fill="#434243" d="M 221.5,15.5 C 233.867,14.1545 246.2,14.4878 258.5,16.5C 246.175,15.9062 233.842,15.5729 221.5,15.5 Z"/></g>
<g><path style="opacity:0.998" fill="#020506" d="M 221.5,15.5 C 233.842,15.5729 246.175,15.9062 258.5,16.5C 261.385,16.1936 264.052,16.5269 266.5,17.5C 275.331,19.7353 284.331,21.7353 293.5,23.5C 359.368,42.8608 406.535,83.8608 435,146.5C 442.192,164.268 447.358,182.601 450.5,201.5C 447.873,202.092 445.206,202.425 442.5,202.5C 439.833,202.833 437.167,203.167 434.5,203.5C 434.574,199.016 433.907,194.683 432.5,190.5C 432.074,186.573 431.074,182.907 429.5,179.5C 413.394,124.221 380.061,82.7211 329.5,55C 294.601,36.4553 257.601,28.6219 218.5,31.5C 217.339,45.9942 217.172,60.6609 218,75.5C 218.671,76.2524 219.504,76.5858 220.5,76.5C 228.298,84.7983 236.298,92.965 244.5,101C 258.261,101.035 271.927,101.702 285.5,103C 300,116.167 313.833,130 327,144.5C 327.667,162.167 327.667,179.833 327,197.5C 321.866,203.635 316.366,209.469 310.5,215C 309.002,215.585 308.002,215.085 307.5,213.5C 306.564,212.026 305.23,211.026 303.5,210.5C 303.238,208.436 302.071,207.103 300,206.5C 299.333,205.5 299.333,204.5 300,203.5C 304,199.5 308,195.5 312,191.5C 312.667,178.167 312.667,164.833 312,151.5C 306.298,145.63 300.465,139.964 294.5,134.5C 289.004,128.837 283.671,123.003 278.5,117C 265.167,116.667 251.833,116.333 238.5,116C 236.677,115.003 235.01,113.836 233.5,112.5C 223.139,101.807 212.806,91.14 202.5,80.5C 202.5,64.8333 202.5,49.1667 202.5,33.5C 190.005,34.8946 178.005,37.8946 166.5,42.5C 159.831,44.3891 153.498,47.0558 147.5,50.5C 154.129,57.9618 161.296,64.9618 169,71.5C 169.667,72.8333 170.333,74.1667 171,75.5C 171.667,87.5 171.667,99.5 171,111.5C 161.364,122.137 151.364,132.471 141,142.5C 140.667,152.833 140.333,163.167 140,173.5C 130.661,183.672 121.161,193.672 111.5,203.5C 108.997,205.833 106.331,207.999 103.5,210C 97.5092,210.499 91.5092,210.666 85.5,210.5C 83.5631,218.647 85.8964,224.981 92.5,229.5C 102.465,239.965 112.631,250.298 123,260.5C 124.617,270.734 124.95,281.067 124,291.5C 116.819,299.4 109.485,307.067 102,314.5C 101.667,322.167 101.333,329.833 101,337.5C 93.6978,345.803 86.0311,353.803 78,361.5C 77.3333,362.5 77.3333,363.5 78,364.5C 103.857,394.518 135.69,415.518 173.5,427.5C 180.482,430.371 187.815,432.371 195.5,433.5C 196.167,433.5 196.833,433.5 197.5,433.5C 198.919,434.451 200.585,434.784 202.5,434.5C 202.667,420.496 202.5,406.496 202,392.5C 196.966,387.801 192.3,382.801 188,377.5C 187.83,368.657 187.33,359.99 186.5,351.5C 177.827,351.666 169.16,351.5 160.5,351C 153.635,344.469 147.135,337.636 141,330.5C 140.333,320.5 140.333,310.5 141,300.5C 152.403,288.886 163.903,277.386 175.5,266C 198.5,265.333 221.5,265.333 244.5,266C 258.339,278.673 271.673,291.839 284.5,305.5C 284.685,307.196 285.519,308.529 287,309.5C 287.5,321.495 287.667,333.495 287.5,345.5C 283.265,351.242 278.432,356.575 273,361.5C 272.667,371.833 272.333,382.167 272,392.5C 265.404,401.1 258.07,409.1 250,416.5C 249.5,422.825 249.334,429.158 249.5,435.5C 253.97,436.486 258.637,436.819 263.5,436.5C 263.216,438.415 263.549,440.081 264.5,441.5C 264.5,442.167 264.833,442.5 265.5,442.5C 266.092,445.127 266.425,447.794 266.5,450.5C 174.083,460.341 101.583,427.341 49,351.5C 2.71397,272.31 3.0473,193.31 50,114.5C 82.6812,65.3417 127.848,34.0084 185.5,20.5C 191.095,20.2464 196.428,19.2464 201.5,17.5C 208.032,15.9549 214.699,15.2882 221.5,15.5 Z"/></g>
<g><path style="opacity:0.288" fill="#343435" d="M 201.5,17.5 C 196.428,19.2464 191.095,20.2464 185.5,20.5C 190.572,18.7536 195.905,17.7536 201.5,17.5 Z"/></g>
<g><path style="opacity:0.31" fill="#444444" d="M 266.5,17.5 C 275.894,18.243 284.894,20.243 293.5,23.5C 284.331,21.7353 275.331,19.7353 266.5,17.5 Z"/></g>
<g><path style="opacity:1" fill="#02cab1" d="M 429.5,179.5 C 429.12,183.658 430.12,187.325 432.5,190.5C 433.907,194.683 434.574,199.016 434.5,203.5C 437.167,203.167 439.833,202.833 442.5,202.5C 443.087,206.206 443.754,209.873 444.5,213.5C 443.532,215.607 443.198,217.941 443.5,220.5C 438.604,219.093 433.604,218.093 428.5,217.5C 412.905,212.35 397.238,207.35 381.5,202.5C 359.528,209.814 337.528,217.147 315.5,224.5C 311.686,225.036 308.019,226.036 304.5,227.5C 304.334,222.489 304.501,217.489 305,212.5C 305.671,213.252 306.504,213.586 307.5,213.5C 308.002,215.085 309.002,215.585 310.5,215C 316.366,209.469 321.866,203.635 327,197.5C 327.667,179.833 327.667,162.167 327,144.5C 313.833,130 300,116.167 285.5,103C 271.927,101.702 258.261,101.035 244.5,101C 236.298,92.965 228.298,84.7983 220.5,76.5C 220.217,75.7109 219.717,75.0442 219,74.5C 218.5,60.1705 218.333,45.8372 218.5,31.5C 257.601,28.6219 294.601,36.4553 329.5,55C 380.061,82.7211 413.394,124.221 429.5,179.5 Z"/></g>
<g><path style="opacity:1" fill="#003c30" d="M 218.5,31.5 C 218.333,45.8372 218.5,60.1705 219,74.5C 219.717,75.0442 220.217,75.7109 220.5,76.5C 219.504,76.5858 218.671,76.2524 218,75.5C 217.172,60.6609 217.339,45.9942 218.5,31.5 Z"/></g>
<g><path style="opacity:1" fill="#3d98e0" d="M 202.5,80.5 C 212.806,91.14 223.139,101.807 233.5,112.5C 234.254,115.091 235.921,116.924 238.5,118C 251.846,118.167 265.179,118.667 278.5,119.5C 279.815,121.316 281.315,122.983 283,124.5C 283.483,125.448 283.649,126.448 283.5,127.5C 286.635,127.548 288.302,129.215 288.5,132.5C 290.45,133.372 292.45,134.039 294.5,134.5C 300.465,139.964 306.298,145.63 312,151.5C 312.667,164.833 312.667,178.167 312,191.5C 308,195.5 304,199.5 300,203.5C 299.333,204.5 299.333,205.5 300,206.5C 302.071,207.103 303.238,208.436 303.5,210.5C 303.5,216.167 303.5,221.833 303.5,227.5C 303.5,227.833 303.5,228.167 303.5,228.5C 300.496,228.722 297.829,229.722 295.5,231.5C 292.053,231.814 288.72,232.648 285.5,234C 283.574,234.422 282.574,235.589 282.5,237.5C 279.78,241.087 280.114,244.587 283.5,248C 295.035,252.345 306.702,256.179 318.5,259.5C 319.479,271.753 319.813,284.087 319.5,296.5C 302.964,298.539 295.464,307.872 297,324.5C 300.56,336.709 308.727,343.376 321.5,344.5C 327.096,360.088 336.763,372.422 350.5,381.5C 351.491,385.445 351.824,389.445 351.5,393.5C 334.926,399.285 318.926,406.451 303.5,415C 295.467,421.525 289.134,429.359 284.5,438.5C 278.357,440.581 272.024,441.914 265.5,442.5C 264.833,442.5 264.5,442.167 264.5,441.5C 264.5,439.5 264.5,437.5 264.5,435.5C 259.5,435.5 254.5,435.5 249.5,435.5C 249.334,429.158 249.5,422.825 250,416.5C 258.07,409.1 265.404,401.1 272,392.5C 272.333,382.167 272.667,371.833 273,361.5C 278.432,356.575 283.265,351.242 287.5,345.5C 288.66,333.34 288.827,321.007 288,308.5C 286.961,307.29 285.794,306.29 284.5,305.5C 271.673,291.839 258.339,278.673 244.5,266C 221.5,265.333 198.5,265.333 175.5,266C 163.903,277.386 152.403,288.886 141,300.5C 140.333,310.5 140.333,320.5 141,330.5C 147.135,337.636 153.635,344.469 160.5,351C 169.16,351.5 177.827,351.666 186.5,351.5C 186.334,361.172 186.5,370.839 187,380.5C 188.706,381.308 189.539,382.641 189.5,384.5C 193.009,384.808 194.676,386.808 194.5,390.5C 197.325,390.081 199.491,391.081 201,393.5C 201.5,406.829 201.667,420.163 201.5,433.5C 200.167,433.5 198.833,433.5 197.5,433.5C 196.833,433.5 196.167,433.5 195.5,433.5C 188.703,429.965 181.369,427.965 173.5,427.5C 135.69,415.518 103.857,394.518 78,364.5C 77.3333,363.5 77.3333,362.5 78,361.5C 86.0311,353.803 93.6978,345.803 101,337.5C 101.333,329.833 101.667,322.167 102,314.5C 109.485,307.067 116.819,299.4 124,291.5C 124.95,281.067 124.617,270.734 123,260.5C 112.631,250.298 102.465,239.965 92.5,229.5C 92.1433,227.411 91.4767,225.411 90.5,223.5C 89.0944,224.668 87.9277,224.335 87,222.5C 86.5014,218.848 86.3347,215.182 86.5,211.5C 92.8421,211.666 99.1754,211.5 105.5,211C 108.857,209.488 110.857,206.988 111.5,203.5C 121.161,193.672 130.661,183.672 140,173.5C 140.333,163.167 140.667,152.833 141,142.5C 151.364,132.471 161.364,122.137 171,111.5C 171.667,99.5 171.667,87.5 171,75.5C 170.333,74.1667 169.667,72.8333 169,71.5C 161.296,64.9618 154.129,57.9618 147.5,50.5C 153.498,47.0558 159.831,44.3891 166.5,42.5C 172.58,40.8648 178.746,39.5314 185,38.5C 188.273,40.0587 191.273,39.7254 194,37.5C 197.911,40.0958 199.078,39.0958 197.5,34.5C 198.833,34.5 200.167,34.5 201.5,34.5C 201.17,50.0091 201.504,65.3424 202.5,80.5 Z"/></g>
<g><path style="opacity:1" fill="#4891c9" d="M 202.5,80.5 C 201.504,65.3424 201.17,50.0091 201.5,34.5C 200.167,34.5 198.833,34.5 197.5,34.5C 199.078,39.0958 197.911,40.0958 194,37.5C 191.273,39.7254 188.273,40.0587 185,38.5C 178.746,39.5314 172.58,40.8648 166.5,42.5C 178.005,37.8946 190.005,34.8946 202.5,33.5C 202.5,49.1667 202.5,64.8333 202.5,80.5 Z"/></g>
<g><path style="opacity:1" fill="#00685a" d="M 137.5,62.5 C 132.77,62.2834 128.103,62.6167 123.5,63.5C 123.611,62.8826 123.944,62.3826 124.5,62C 129.02,61.1864 133.354,61.353 137.5,62.5 Z"/></g>
<g><path style="opacity:1" fill="#03cab1" d="M 137.5,62.5 C 143.774,67.9427 149.608,73.9427 155,80.5C 155.667,89.1667 155.667,97.8333 155,106.5C 145.333,116.167 135.667,125.833 126,135.5C 124.711,146.403 124.044,157.403 124,168.5C 115.5,177 107,185.5 98.5,194C 90.5,194.333 82.5,194.667 74.5,195C 72.6667,196.167 71.1667,197.667 70,199.5C 69.3333,208.833 69.3333,218.167 70,227.5C 81.9361,241.438 94.6028,254.772 108,267.5C 108.667,273.833 108.667,280.167 108,286.5C 100.667,293.833 93.3333,301.167 86,308.5C 85.6667,316.5 85.3333,324.5 85,332.5C 79.3188,338.348 73.4854,344.015 67.5,349.5C 31.3933,296.026 21.8933,238.026 39,175.5C 53.8878,128.018 82.0545,90.6847 123.5,63.5C 128.103,62.6167 132.77,62.2834 137.5,62.5 Z"/></g>
<g><path style="opacity:1" fill="#498fc8" d="M 233.5,112.5 C 235.01,113.836 236.677,115.003 238.5,116C 251.833,116.333 265.167,116.667 278.5,117C 283.671,123.003 289.004,128.837 294.5,134.5C 292.45,134.039 290.45,133.372 288.5,132.5C 288.302,129.215 286.635,127.548 283.5,127.5C 283.649,126.448 283.483,125.448 283,124.5C 281.315,122.983 279.815,121.316 278.5,119.5C 265.179,118.667 251.846,118.167 238.5,118C 235.921,116.924 234.254,115.091 233.5,112.5 Z"/></g>
<g><path style="opacity:1" fill="#194364" d="M 282.5,148.5 C 264.786,148.194 247.12,148.527 229.5,149.5C 229.611,148.883 229.944,148.383 230.5,148C 248.005,147.171 265.338,147.338 282.5,148.5 Z"/></g>
<g><path style="opacity:1" fill="#010306" d="M 282.5,148.5 C 284.772,149.441 286.772,150.774 288.5,152.5C 288.667,169.837 288.5,187.17 288,204.5C 287.436,206.887 286.27,208.887 284.5,210.5C 279.336,215.496 274.003,220.329 268.5,225C 260.833,225.667 253.167,225.667 245.5,225C 244.667,224.167 243.833,223.333 243,222.5C 241.711,211.597 241.044,200.597 241,189.5C 236.333,184.833 231.667,180.167 227,175.5C 226.333,167.5 226.333,159.5 227,151.5C 227.708,150.619 228.542,149.953 229.5,149.5C 247.12,148.527 264.786,148.194 282.5,148.5 Z"/></g>
<g><path style="opacity:1" fill="#508cb9" d="M 288.5,152.5 C 289.662,170.329 289.829,188.329 289,206.5C 288.252,208.751 286.752,210.084 284.5,210.5C 286.27,208.887 287.436,206.887 288,204.5C 288.5,187.17 288.667,169.837 288.5,152.5 Z"/></g>
<g><path style="opacity:1" fill="#09c4ac" d="M 241.5,163.5 C 252.167,163.5 262.833,163.5 273.5,163.5C 273.667,175.505 273.5,187.505 273,199.5C 269.5,203 266,206.5 262.5,210C 260.866,210.494 259.199,210.66 257.5,210.5C 257.666,201.494 257.5,192.494 257,183.5C 252,178.5 247,173.5 242,168.5C 241.506,166.866 241.34,165.199 241.5,163.5 Z"/></g>
<g><path style="opacity:1" fill="#139183" d="M 429.5,179.5 C 431.074,182.907 432.074,186.573 432.5,190.5C 430.12,187.325 429.12,183.658 429.5,179.5 Z"/></g>
<g><path style="opacity:0.996" fill="#030203" d="M 428.5,217.5 C 434.216,220.072 440.216,222.072 446.5,223.5C 449.486,223.903 452.152,224.903 454.5,226.5C 462.216,229.739 470.216,232.405 478.5,234.5C 481.518,235.353 483.351,237.353 484,240.5C 484.5,256.497 484.667,272.497 484.5,288.5C 479.167,288.5 473.833,288.5 468.5,288.5C 468.5,276.833 468.5,265.167 468.5,253.5C 460.672,255.22 453.005,257.553 445.5,260.5C 445.052,272.192 444.885,283.859 445,295.5C 463.596,299.031 470.929,310.031 467,328.5C 462.259,338.96 454.092,343.96 442.5,343.5C 438.172,359.832 428.838,372.499 414.5,381.5C 413.341,385.122 413.175,388.789 414,392.5C 428.998,398.914 443.831,405.748 458.5,413C 480.282,428.976 488.782,450.476 484,477.5C 483.654,479.848 482.487,481.681 480.5,483C 416.558,484.656 352.558,484.989 288.5,484C 284.88,483.716 282.38,481.883 281,478.5C 279.496,464.872 280.662,451.538 284.5,438.5C 289.134,429.359 295.467,421.525 303.5,415C 318.926,406.451 334.926,399.285 351.5,393.5C 351.824,389.445 351.491,385.445 350.5,381.5C 336.763,372.422 327.096,360.088 321.5,344.5C 308.727,343.376 300.56,336.709 297,324.5C 295.464,307.872 302.964,298.539 319.5,296.5C 320.166,290.509 320.5,284.343 320.5,278C 320.496,271.462 319.83,265.295 318.5,259.5C 306.702,256.179 295.035,252.345 283.5,248C 280.114,244.587 279.78,241.087 282.5,237.5C 286.747,235.208 291.081,233.208 295.5,231.5C 297.829,229.722 300.496,228.722 303.5,228.5C 307.787,227.768 311.787,226.435 315.5,224.5C 337.528,217.147 359.528,209.814 381.5,202.5C 397.238,207.35 412.905,212.35 428.5,217.5 Z"/></g>
<g><path style="opacity:1" fill="#4c91c7" d="M 111.5,203.5 C 110.857,206.988 108.857,209.488 105.5,211C 99.1754,211.5 92.8421,211.666 86.5,211.5C 86.3347,215.182 86.5014,218.848 87,222.5C 87.9277,224.335 89.0944,224.668 90.5,223.5C 91.4767,225.411 92.1433,227.411 92.5,229.5C 85.8964,224.981 83.5631,218.647 85.5,210.5C 91.5092,210.666 97.5092,210.499 103.5,210C 106.331,207.999 108.997,205.833 111.5,203.5 Z"/></g>
<g><path style="opacity:1" fill="#a9a8ae" d="M 377.5,219.5 C 380.187,219.336 382.854,219.503 385.5,220C 407.403,226.627 429.069,233.793 450.5,241.5C 429.876,248.764 409.21,255.93 388.5,263C 385.558,264.124 382.558,264.458 379.5,264C 357.626,256.987 335.959,249.487 314.5,241.5C 335.61,234.132 356.61,226.798 377.5,219.5 Z"/></g>
<g><path style="opacity:1" fill="#2ca491" d="M 444.5,213.5 C 444.06,217.179 444.727,220.512 446.5,223.5C 440.216,222.072 434.216,220.072 428.5,217.5C 433.604,218.093 438.604,219.093 443.5,220.5C 443.198,217.941 443.532,215.607 444.5,213.5 Z"/></g>
<g><path style="opacity:1" fill="#20adc0" d="M 303.5,210.5 C 305.23,211.026 306.564,212.026 307.5,213.5C 306.504,213.586 305.671,213.252 305,212.5C 304.501,217.489 304.334,222.489 304.5,227.5C 304.167,227.5 303.833,227.5 303.5,227.5C 303.5,221.833 303.5,216.167 303.5,210.5 Z"/></g>
<g><path style="opacity:1" fill="#055a51" d="M 315.5,224.5 C 311.787,226.435 307.787,227.768 303.5,228.5C 303.5,228.167 303.5,227.833 303.5,227.5C 303.833,227.5 304.167,227.5 304.5,227.5C 308.019,226.036 311.686,225.036 315.5,224.5 Z"/></g>
<g><path style="opacity:0.671" fill="#2b2b2c" d="M 454.5,226.5 C 462.915,228.194 470.915,230.86 478.5,234.5C 470.216,232.405 462.216,229.739 454.5,226.5 Z"/></g>
<g><path style="opacity:1" fill="#0b2039" d="M 295.5,231.5 C 291.081,233.208 286.747,235.208 282.5,237.5C 282.574,235.589 283.574,234.422 285.5,234C 288.72,232.648 292.053,231.814 295.5,231.5 Z"/></g>
<g><path style="opacity:1" fill="#88868e" d="M 427.5,265.5 C 429.465,272.76 430.132,280.427 429.5,288.5C 398.167,288.5 366.833,288.5 335.5,288.5C 335.5,281.167 335.5,273.833 335.5,266.5C 351.097,270.234 366.431,274.9 381.5,280.5C 397.07,275.865 412.403,270.865 427.5,265.5 Z"/></g>
<g><path style="opacity:1" fill="#0c2a42" d="M 318.5,259.5 C 319.83,265.295 320.496,271.462 320.5,278C 320.5,284.343 320.166,290.509 319.5,296.5C 319.813,284.087 319.479,271.753 318.5,259.5 Z"/></g>
<g><path style="opacity:1" fill="#04cab1" d="M 272.5,315.5 C 272.803,324.251 272.47,332.918 271.5,341.5C 266.476,345.691 261.976,350.357 258,355.5C 257.667,366.167 257.333,376.833 257,387.5C 249.27,395.062 241.77,402.728 234.5,410.5C 233.507,418.984 233.174,427.651 233.5,436.5C 228.5,436.5 223.5,436.5 218.5,436.5C 218.667,420.163 218.5,403.83 218,387.5C 213.367,381.865 208.367,376.532 203,371.5C 202.667,360.833 202.333,350.167 202,339.5C 200.833,338.333 199.667,337.167 198.5,336C 187.833,335.667 177.167,335.333 166.5,335C 163,331.5 159.5,328 156,324.5C 155.17,318.472 155.336,312.472 156.5,306.5C 165.14,298.527 173.473,290.194 181.5,281.5C 200.833,280.167 220.167,280.167 239.5,281.5C 250.576,292.907 261.576,304.241 272.5,315.5 Z"/></g>
<g><path style="opacity:1" fill="#f4cf95" d="M 335.5,304.5 C 366.671,304.169 397.671,304.502 428.5,305.5C 397.833,305.5 367.167,305.5 336.5,305.5C 336.5,315.5 336.5,325.5 336.5,335.5C 335.506,325.347 335.172,315.014 335.5,304.5 Z"/></g>
<g><path style="opacity:1" fill="#fcc378" d="M 428.5,305.5 C 428.5,315.5 428.5,325.5 428.5,335.5C 425.094,352.495 415.427,364.328 399.5,371C 375.449,378.65 356.282,372.15 342,351.5C 339.066,346.531 337.233,341.198 336.5,335.5C 336.5,325.5 336.5,315.5 336.5,305.5C 367.167,305.5 397.833,305.5 428.5,305.5 Z"/></g>
<g><path style="opacity:1" fill="#775e3b" d="M 413.5,312.5 C 408.5,312.5 403.5,312.5 398.5,312.5C 398.5,317.5 398.5,322.5 398.5,327.5C 397.512,322.36 397.179,317.026 397.5,311.5C 403.026,311.179 408.36,311.512 413.5,312.5 Z"/></g>
<g><path style="opacity:1" fill="#040001" d="M 413.5,312.5 C 413.5,317.5 413.5,322.5 413.5,327.5C 408.5,327.5 403.5,327.5 398.5,327.5C 398.5,322.5 398.5,317.5 398.5,312.5C 403.5,312.5 408.5,312.5 413.5,312.5 Z"/></g>
<g><path style="opacity:1" fill="#040001" d="M 366.5,312.5 C 366.5,317.5 366.5,322.5 366.5,327.5C 361.5,327.5 356.5,327.5 351.5,327.5C 351.5,322.5 351.5,317.5 351.5,312.5C 356.5,312.5 361.5,312.5 366.5,312.5 Z"/></g>
<g><path style="opacity:1" fill="#7d6136" d="M 335.5,304.5 C 366.662,303.502 397.996,303.168 429.5,303.5C 429.828,314.346 429.494,325.013 428.5,335.5C 428.5,325.5 428.5,315.5 428.5,305.5C 397.671,304.502 366.671,304.169 335.5,304.5 Z"/></g>
<g><path style="opacity:1" fill="#020c24" d="M 284.5,305.5 C 285.794,306.29 286.961,307.29 288,308.5C 288.827,321.007 288.66,333.34 287.5,345.5C 287.667,333.495 287.5,321.495 287,309.5C 285.519,308.529 284.685,307.196 284.5,305.5 Z"/></g>
<g><path style="opacity:1" fill="#483116" d="M 316.5,312.5 C 317.568,311.566 318.901,311.232 320.5,311.5C 320.821,317.026 320.488,322.36 319.5,327.5C 319.5,322.5 319.5,317.5 319.5,312.5C 318.5,312.5 317.5,312.5 316.5,312.5 Z"/></g>
<g><path style="opacity:1" fill="#8c6d3e" d="M 366.5,312.5 C 361.5,312.5 356.5,312.5 351.5,312.5C 351.5,317.5 351.5,322.5 351.5,327.5C 350.512,322.36 350.179,317.026 350.5,311.5C 356.026,311.179 361.36,311.512 366.5,312.5 Z"/></g>
<g><path style="opacity:1" fill="#005c4d" d="M 272.5,315.5 C 273.166,319.653 273.499,323.987 273.5,328.5C 273.492,333.222 272.825,337.555 271.5,341.5C 272.47,332.918 272.803,324.251 272.5,315.5 Z"/></g>
<g><path style="opacity:1" fill="#d2a464" d="M 316.5,312.5 C 317.5,312.5 318.5,312.5 319.5,312.5C 319.5,317.5 319.5,322.5 319.5,327.5C 315.91,327.456 313.41,325.789 312,322.5C 310.53,317.81 312.03,314.477 316.5,312.5 Z"/></g>
<g><path style="opacity:1" fill="#fbb854" d="M 316.5,313.5 C 318.423,317.029 319.089,321.029 318.5,325.5C 315.318,324.689 313.652,322.523 313.5,319C 313.863,316.808 314.863,314.974 316.5,313.5 Z"/></g>
<g><path style="opacity:1" fill="#caa261" d="M 449.5,313.5 C 453.478,317.55 453.478,321.716 449.5,326C 447.975,327.009 446.308,327.509 444.5,327.5C 444.5,322.167 444.5,316.833 444.5,311.5C 446.553,311.402 448.22,312.069 449.5,313.5 Z"/></g>
<g><path style="opacity:1" fill="#fab861" d="M 449.5,313.5 C 450.666,316.83 450.666,320.163 449.5,323.5C 448.476,324.853 447.143,325.52 445.5,325.5C 445.335,321.818 445.501,318.152 446,314.5C 447.011,313.663 448.178,313.33 449.5,313.5 Z"/></g>
<g><path style="opacity:1" fill="#efbc76" d="M 366.5,388.5 C 376.833,389.833 387.167,389.833 397.5,388.5C 397.785,390.288 397.452,391.955 396.5,393.5C 386.914,398.62 377.248,398.787 367.5,394C 366.594,392.301 366.261,390.467 366.5,388.5 Z"/></g>
<g><path style="opacity:1" fill="#4684b5" d="M 186.5,351.5 C 187.33,359.99 187.83,368.657 188,377.5C 192.3,382.801 196.966,387.801 202,392.5C 202.5,406.496 202.667,420.496 202.5,434.5C 200.585,434.784 198.919,434.451 197.5,433.5C 198.833,433.5 200.167,433.5 201.5,433.5C 201.667,420.163 201.5,406.829 201,393.5C 199.491,391.081 197.325,390.081 194.5,390.5C 194.676,386.808 193.009,384.808 189.5,384.5C 189.539,382.641 188.706,381.308 187,380.5C 186.5,370.839 186.334,361.172 186.5,351.5 Z"/></g>
<g><path style="opacity:1" fill="#737279" d="M 404.5,406.5 C 409.386,407.61 413.719,409.776 417.5,413C 417.235,415.535 416.069,417.368 414,418.5C 410.5,417.333 407,416.167 403.5,415C 402.373,413.247 401.373,411.413 400.5,409.5C 401.901,408.479 403.235,407.479 404.5,406.5 Z"/></g>
<g><path style="opacity:1" fill="#737279" d="M 357.5,406.5 C 363.543,407.285 364.71,409.952 361,414.5C 357.114,416.68 352.947,418.014 348.5,418.5C 347.833,416.181 347.666,413.847 348,411.5C 351.209,409.723 354.376,408.057 357.5,406.5 Z"/></g>
<g><path style="opacity:1" fill="#a5a4a9" d="M 379.5,413.5 C 381.527,413.338 383.527,413.505 385.5,414C 386.627,415.753 387.627,417.587 388.5,419.5C 386.833,421.833 384.833,423.833 382.5,425.5C 380.167,423.833 378.167,421.833 376.5,419.5C 377.513,417.473 378.513,415.473 379.5,413.5 Z"/></g>
<g><path style="opacity:1" fill="#004c41" d="M 234.5,410.5 C 234.5,419.5 234.5,428.5 234.5,437.5C 228.974,437.821 223.64,437.488 218.5,436.5C 223.5,436.5 228.5,436.5 233.5,436.5C 233.174,427.651 233.507,418.984 234.5,410.5 Z"/></g>
<g><path style="opacity:1" fill="#88878e" d="M 467.5,453.5 C 467.5,458.167 467.5,462.833 467.5,467.5C 448.833,467.5 430.167,467.5 411.5,467.5C 407.937,455.643 404.27,443.81 400.5,432C 400.833,431.5 401.167,431 401.5,430.5C 408.957,434.824 416.957,436.657 425.5,436C 427.049,434.786 428.215,433.286 429,431.5C 429.871,427.016 431.204,422.683 433,418.5C 443.904,422.073 453.237,428.073 461,436.5C 464.65,441.62 466.817,447.287 467.5,453.5 Z"/></g>
<g><path style="opacity:1" fill="#3b7bac" d="M 173.5,427.5 C 181.369,427.965 188.703,429.965 195.5,433.5C 187.815,432.371 180.482,430.371 173.5,427.5 Z"/></g>
<g><path style="opacity:1" fill="#87868e" d="M 330.5,418.5 C 331.496,418.414 332.329,418.748 333,419.5C 334,423.5 335,427.5 336,431.5C 338.072,436.143 341.572,437.643 346.5,436C 351.275,434.297 356.108,432.797 361,431.5C 361.833,431.833 362.667,432.167 363.5,432.5C 359.228,444.254 355.895,456.254 353.5,468.5C 334.5,468.5 315.5,468.5 296.5,468.5C 294.355,451.311 300.021,437.478 313.5,427C 319.314,424.243 324.981,421.41 330.5,418.5 Z"/></g>
<g><path style="opacity:1" fill="#07233d" d="M 249.5,435.5 C 254.5,435.5 259.5,435.5 264.5,435.5C 264.5,437.5 264.5,439.5 264.5,441.5C 263.549,440.081 263.216,438.415 263.5,436.5C 258.637,436.819 253.97,436.486 249.5,435.5 Z"/></g>
<g><path style="opacity:1" fill="#a4a4a9" d="M 386.5,442.5 C 387.497,442.47 388.164,442.97 388.5,444C 391.071,452.119 393.404,460.285 395.5,468.5C 386.833,468.5 378.167,468.5 369.5,468.5C 371.558,460.49 373.725,452.49 376,444.5C 378.699,444.336 381.532,444.17 384.5,444C 385.416,443.722 386.082,443.222 386.5,442.5 Z"/></g>
<g><path style="opacity:1" fill="#6a696e" d="M 467.5,453.5 C 468.487,458.305 468.821,463.305 468.5,468.5C 449.326,468.83 430.326,468.497 411.5,467.5C 430.167,467.5 448.833,467.5 467.5,467.5C 467.5,462.833 467.5,458.167 467.5,453.5 Z"/></g>
</svg>
